<?xml version="1.0" encoding="utf-8"?>
<!-- Generator: Adobe Illustrator 25.4.1, SVG Export Plug-In . SVG Version: 6.00 Build 0)  -->
<svg version="1.1" id="Layer_1" xmlns="http://www.w3.org/2000/svg" xmlns:xlink="http://www.w3.org/1999/xlink" x="0px" y="0px"
	 viewBox="0 0 392.9 578.6" style="enable-background:new 0 0 392.9 578.6;" xml:space="preserve">
<style type="text/css">
	.st0{fill:#171717;}
	.st1{fill-rule:evenodd;clip-rule:evenodd;fill:url(#SVGID_1_);}
	.st2{fill-rule:evenodd;clip-rule:evenodd;fill:url(#SVGID_00000159429266100810709740000015960139035087010196_);}
	.st3{fill-rule:evenodd;clip-rule:evenodd;fill:url(#SVGID_00000161633476731737392010000012044856649947187599_);}
	.st4{fill:url(#SVGID_00000117649779713228409980000005733443536276178835_);}
</style>
<g>
	<g>
		<path class="st0" d="M21.6,490.3v53.1h32.1v18.7H0v-71.8H21.6z"/>
		<path class="st0" d="M75.8,527.6H57.2c0.4-6,2.1-10.3,5.3-13.2c4.1-3.9,10.9-5.8,20-5.8c11.5,0,19.1,2.5,22.9,7.4
			c2.3,2.9,3.5,7.2,3.5,13v22.4c0,3.5,0.4,6,1.4,7.8c0.6,1,1.4,1.9,2.3,2.9H91.4c-0.4-0.8-0.8-1.8-1.2-3.1c-0.4-1.2-0.6-2.1-0.6-2.7
			c-1.8,2.3-3.5,3.9-5.1,4.9c-3.1,1.8-6.8,2.7-11.5,2.7c-5.8,0-10.5-1.6-13.8-4.7c-2.9-2.7-4.3-6-4.3-10.3c0-5.8,2.5-10.1,7.4-13
			c2.5-1.6,7.4-2.9,14.4-4.1c5.8-1,9.3-1.9,10.5-2.7c1.4-0.8,2.1-1.9,2.1-3.5c0-0.8-0.2-1.6-0.8-2.1c-1.2-1.4-2.9-1.9-5.6-1.9
			c-2.7,0-4.7,0.6-6.2,1.9c-1,0.8-1.4,1.9-1.4,3.3C75.8,526.9,75.8,527.3,75.8,527.6z M90,537.8c-1.4,1.2-2.7,1.9-4.3,2.5
			c-1.2,0.6-3.3,1.2-6.2,1.9c-2.3,0.6-3.9,1.2-4.7,1.9c-0.8,0.8-1.2,1.8-1.2,2.9s0.4,1.9,1.2,2.9c1.2,1,2.7,1.6,4.7,1.6
			c3.7,0,6.6-1.4,8.4-3.9c1.4-1.9,1.9-4.3,1.9-7.2v-2.7H90z"/>
		<path class="st0" d="M169.2,510.3v51.7h-18.3v-7.6c-2.3,3.3-4.7,5.6-7.2,7c-2.7,1.6-5.8,2.1-9.1,2.1c-3.9,0-7.6-1-10.7-2.7
			c-3.9-2.1-6.4-5.4-7.6-9.9c-0.8-2.7-1-6.4-1-10.7v-30H135v26.4c0,3.3,0.2,5.4,0.8,6.8c1,2.3,2.9,3.5,5.6,3.5c2.9,0,5.1-1,6.8-3.1
			c0.6-0.8,1.2-1.8,1.4-2.9c0.2-1.2,0.2-2.5,0.2-4.3v-26.4H169.2z"/>
		<path class="st0" d="M192.5,510.3v7.4c1.9-2.7,3.9-4.9,5.6-6c3.1-2.1,7-3.1,11.5-3.1c7.8,0,13.2,3.1,16.3,9.1
			c1.6,2.9,2.1,6.4,2.1,10.5v33.6h-19.6v-29.6c0-4.9-2.1-7.4-6.6-7.4c-1.9,0-3.7,0.6-5.3,1.8c-2.1,1.6-3.1,4.5-3.1,8.8v26.4h-19.4
			v-51.7h18.5V510.3z"/>
		<path class="st0" d="M288.8,490.3v71.8h-18.5v-6c-1.8,2.3-3.5,3.9-5.1,4.9c-2.9,1.8-6.4,2.5-10.7,2.5c-7.4,0-13-2.5-16.9-7.6
			c-4.1-5.3-6-11.9-6-19.8c0-8,1.9-14.6,6-19.6c4.1-5.3,9.7-8,16.3-8c6.2,0,11.3,2.3,15.2,6.8v-25.3h19.6V490.3z M260.2,523.4
			c-3.1,0-5.3,1.4-6.8,3.9c-1.4,2.3-1.9,5.1-1.9,8.4c0,3.7,0.8,6.8,2.5,9.1c1.4,2.1,3.5,3.3,6.2,3.3c3.3,0,5.6-1.4,7.4-4.3
			c1.4-2.1,1.9-5.1,1.9-8.4c0-3.5-0.6-6.2-1.9-8.2C266.1,524.7,263.5,523.4,260.2,523.4z"/>
		<path class="st0" d="M311.6,510.3v7.2c3.9-5.6,9.1-8.4,15.4-8.4c1.6,0,3.5,0.2,5.4,0.8v16.3c-1.9-0.4-3.7-0.8-5.1-0.8
			c-5.4,0-9.5,1.8-11.9,5.4c-1.4,2.3-2.1,5.4-2.1,9.3v21.6h-19.6v-51.7h17.9V510.3z"/>
		<path class="st0" d="M392.9,510.3l-15.9,47.3c-2.9,8.8-6.4,14.6-10.5,17.7c-2.7,2.1-6.2,3.3-10.5,3.3c-0.8,0-2.5,0-4.9,0h-10.5
			v-15.2c3.1,0,4.9,0.2,5.1,0.2c4.1,0,6.2-1.4,6.2-3.9c0-1.4-0.4-2.9-1.4-5.3l-16.7-44.1h20.6l8.9,31.9l8.9-31.9L392.9,510.3
			L392.9,510.3z"/>
	</g>
	<g>
		<g>
			
				<linearGradient id="SVGID_1_" gradientUnits="userSpaceOnUse" x1="331.2746" y1="231.4312" x2="41.2824" y2="373.6357" gradientTransform="matrix(1 0 0 -1 0 571.1938)">
				<stop  offset="0.3578" style="stop-color:#2E3190"/>
				<stop  offset="1" style="stop-color:#00A451"/>
			</linearGradient>
			<path class="st1" d="M118.4,100.2C27,153.3-10.9,229.1,12.6,294.7c21.6,61.3,115.7,93.2,374.6-7.4C343.7,296,205,297.2,114.7,274
				C24.3,251.1-23.9,202.1,118.4,100.2L118.4,100.2z"/>
			
				<linearGradient id="SVGID_00000031193019548321138470000002777581096905326513_" gradientUnits="userSpaceOnUse" x1="161.7548" y1="466.0387" x2="252.4385" y2="201.8012" gradientTransform="matrix(1 0 0 -1 0 571.1938)">
				<stop  offset="0.3578" style="stop-color:#2E3190"/>
				<stop  offset="1" style="stop-color:#00A451"/>
			</linearGradient>
			<path style="fill-rule:evenodd;clip-rule:evenodd;fill:url(#SVGID_00000031193019548321138470000002777581096905326513_);" d="
				M156.8,389.2c74.5,44.7,142,42.2,171.1-11.3c30.7-56.4-5.3-175.2-254-372.2c37.1,41,134.8,188.3,178.3,291.7
				C291.9,391.1,289.6,454.1,156.8,389.2L156.8,389.2z"/>
			
				<linearGradient id="SVGID_00000042008896387943597480000011687412565828285313_" gradientUnits="userSpaceOnUse" x1="56.1741" y1="142.7678" x2="225.2426" y2="422.6814" gradientTransform="matrix(1 0 0 -1 0 571.1938)">
				<stop  offset="0.3578" style="stop-color:#2E3190"/>
				<stop  offset="1" style="stop-color:#00A451"/>
			</linearGradient>
			<path style="fill-rule:evenodd;clip-rule:evenodd;fill:url(#SVGID_00000042008896387943597480000011687412565828285313_);" d="
				M296.8,214.9c15.6-106-25.9-159.1-101.7-133.8C122.1,105.2,42.8,221.7,28,461.9c8.8-33.6,64.2-158.3,128.4-253.6
				C228.9,100.6,304.4,40.8,296.8,214.9L296.8,214.9z"/>
		</g>
		
			<linearGradient id="SVGID_00000057109243395393960310000007773979988575536027_" gradientUnits="userSpaceOnUse" x1="315.4523" y1="471.8044" x2="315.4523" y2="571.3218" gradientTransform="matrix(1 0 0 -1 0 571.1938)">
			<stop  offset="0" style="stop-color:#2E3190"/>
			<stop  offset="0.6686" style="stop-color:#0E8164"/>
			<stop  offset="1" style="stop-color:#00A451"/>
		</linearGradient>
		<path style="fill:url(#SVGID_00000057109243395393960310000007773979988575536027_);" d="M365.6,49.6c0,1.9-1,2.7-2.1,3.1
			c-0.6,0.2-1.4,0.4-2.1,0.6c-3.1,0.8-6,1.4-9.1,2.1c-1.4,0.4-2.7,0.6-4.1,1c-13.8,3.7-22.4,12.4-26.1,26.3
			c-0.4,1.6-0.8,3.1-1.2,4.7c-0.6,2.1-1,4.1-1.6,6.2c-0.6,1.9-0.2,4.9-2.1,5.8c-1.2,0-2.1,0-3.3,0c-1.9-1-1.6-3.7-2.1-5.6
			c-0.6-1.9-0.8-3.9-1.2-5.8c0-0.4-0.2-0.6-0.2-1c-3.9-18.3-15.2-28.8-33.3-32.3c-2.9-0.6-5.6-1.2-8.6-1.8c-0.2,0-0.4,0-0.6,0
			c-1.8-0.4-2.5-1.4-2.7-2.7c0.2-1.8,0.8-2.7,2.1-3.1c0.2-0.2,0.6-0.2,1-0.2c3.3-0.6,6.6-1.4,9.9-1.9c2.9-0.6,5.6-1.4,8.2-2.3
			c4.5-1.8,8.4-4.1,11.7-7c3.9-3.5,7-8,9.3-13.2c1.4-3.3,2.5-6.8,3.1-10.7c0.4-1.8,0.6-3.5,1-5.3c0-0.4,0.2-0.8,0.2-1
			c0.6-2.1,0-5.4,3.5-5.4c3.5-0.2,3.1,3.1,3.7,5.3v0.2c0.6,2.3,1,4.9,1.4,7.4c0.2,1.4,0.6,2.7,1,3.9c4.3,15.4,14.6,24.3,30.5,27.8
			c0.6,0.2,1.2,0.2,1.9,0.4c2.3,0.4,4.9,0.8,7.2,1.4c0.8,0.2,1.6,0.4,2.3,0.6C364.7,47.3,365.6,47.9,365.6,49.6z"/>
	</g>
</g>
</svg>
