<?xml version="1.0" encoding="utf-8"?>
<!-- Generator: Adobe Illustrator 25.4.1, SVG Export Plug-In . SVG Version: 6.00 Build 0)  -->
<svg version="1.1" id="Layer_1" xmlns="http://www.w3.org/2000/svg" xmlns:xlink="http://www.w3.org/1999/xlink" x="0px" y="0px"
	 viewBox="0 0 392.9 461.9" style="enable-background:new 0 0 392.9 461.9;" xml:space="preserve">
<style type="text/css">
	.st0{fill-rule:evenodd;clip-rule:evenodd;fill:#FFFFFF;}
	.st1{fill:#FFFFFF;}
</style>
<g>
	<g>
		<path class="st0" d="M118.3,100.2C26.9,153.3-11,229.1,12.5,294.7c21.6,61.3,115.7,93.2,374.6-7.4c-43.6,8.8-182.2,9.9-272.5-13.2
			C24.2,251.1-24,202.1,118.3,100.2L118.3,100.2z"/>
		<path class="st0" d="M156.7,389.2c74.5,44.7,142,42.2,171.1-11.3c30.7-56.4-5.3-175.2-254-372.2c37.1,41,134.8,188.3,178.3,291.7
			C291.8,391.1,289.5,454.1,156.7,389.2L156.7,389.2z"/>
		<path class="st0" d="M296.7,214.9c15.6-106-25.9-159.1-101.7-133.8C122,105.2,42.7,221.7,27.9,461.9
			c8.8-33.6,64.2-158.3,128.4-253.6C228.8,100.6,304.3,40.8,296.7,214.9L296.7,214.9z"/>
	</g>
	<path class="st1" d="M365.5,49.6c0,1.9-1,2.7-2.1,3.1c-0.6,0.2-1.4,0.4-2.1,0.6c-3.1,0.8-6,1.4-9.1,2.1c-1.4,0.4-2.7,0.6-4.1,1
		c-13.8,3.7-22.4,12.4-26.1,26.3c-0.4,1.6-0.8,3.1-1.2,4.7c-0.6,2.1-1,4.1-1.6,6.2c-0.6,1.9-0.2,4.9-2.1,5.8c-1.2,0-2.1,0-3.3,0
		c-1.9-1-1.6-3.7-2.1-5.6c-0.6-1.9-0.8-3.9-1.2-5.8c0-0.4-0.2-0.6-0.2-1c-3.9-18.3-15.2-28.8-33.3-32.3c-2.9-0.6-5.6-1.2-8.6-1.8
		c-0.2,0-0.4,0-0.6,0c-1.8-0.4-2.5-1.4-2.7-2.7c0.2-1.8,0.8-2.7,2.1-3.1c0.2-0.2,0.6-0.2,1-0.2c3.3-0.6,6.6-1.4,9.9-1.9
		c2.9-0.6,5.6-1.4,8.2-2.3c4.5-1.8,8.4-4.1,11.7-7c3.9-3.5,7-8,9.3-13.2c1.4-3.3,2.5-6.8,3.1-10.7c0.4-1.8,0.6-3.5,1-5.3
		c0-0.4,0.2-0.8,0.2-1c0.6-2.1,0-5.4,3.5-5.4c3.5-0.2,3.1,3.1,3.7,5.3v0.2c0.6,2.3,1,4.9,1.4,7.4c0.2,1.4,0.6,2.7,1,3.9
		c4.3,15.4,14.6,24.3,30.5,27.8c0.6,0.2,1.2,0.2,1.9,0.4c2.3,0.4,4.9,0.8,7.2,1.4c0.8,0.2,1.6,0.4,2.3,0.6
		C364.6,47.3,365.5,47.9,365.5,49.6z"/>
</g>
</svg>
